#!OML:ASF F:\VICON\USERDATA\INSTALL\rory3\rory3.ASF
:FULLY-SPECIFIED
:DEGREES
4104
root 0.230352 17.5648 2.81002 9.07273 18.0991 -1.84127
lowerback 10.7981 5.4329 1.67434
upperback 2.24332 7.40775 0.430161
thorax -3.51718 3.65669 -1.48215
lowerneck -32.2655 -7.11463 -9.94979
upperneck 21.5635 -5.70313 1.87057
head 12.8221 -3.09694 1.17469
rclavicle 4.9895e-014 -1.59028e-015
rhumerus 48.9082 -15.3136 -65.5895
rradius 61.8569
rwrist 38.008
rhand -67.0602 -20.3732
rfingers 7.12502
rthumb -38.8436 -45.9378
lclavicle 4.9895e-014 -1.59028e-015
lhumerus -32.2817 -1.03934 74.4384
lradius 41.3034
lwrist -29.1861
lhand -33.8029 18.6001
lfingers 7.12502
lthumb -6.98935 408.465
rfemur -17.0263 -11.2843 11.9912
rtibia 30.7563
rfoot -20.2653 -10.2938
rtoes 2.65246
lfemur -26.2677 1.65523 -12.1056
ltibia 35.0681
lfoot -14.3861 -1.15895
ltoes -24.2706
4105
root 0.255294 17.5697 2.80182 9.17489 18.4863 -2.08311
lowerback 10.8185 5.45737 1.69771
upperback 2.13065 7.43781 0.2594
thorax -3.61893 3.66821 -1.6829
lowerneck -32.1663 -7.18517 -9.96573
upperneck 21.613 -5.8412 1.9824
head 12.8378 -3.14376 1.19423
rclavicle 1.59028e-015 -3.26007e-014
rhumerus 49.5547 -14.7124 -65.7109
rradius 61.3793
rwrist 38.2663
rhand -67.2799 -20.3419
rfingers 7.12502
rthumb -39.0508 -45.8474
lclavicle 1.59028e-015 -3.26007e-014
lhumerus -32.2324 -0.713571 74.0901
lradius 41.1874
lwrist -29.5932
lhand -33.2257 18.5308
lfingers 7.12502
lthumb -6.43207 408.413
rfemur -16.952 -11.4246 12.2209
rtibia 30.4257
rfoot -20.2147 -10.6241
rtoes 2.19239
lfemur -26.6017 1.52145 -11.9179
ltibia 35.1332
lfoot -14.4968 -1.37167
ltoes -24.733
4106
root 0.277708 17.5759 2.79746 9.26993 18.8651 -2.33037
lowerback 10.7468 5.49885 1.75039
upperback 2.06969 7.49087 0.0808935
thorax -3.61026 3.69344 -1.89697
lowerneck -31.9561 -7.25778 -9.94659
upperneck 21.4905 -5.97778 1.98577
head 12.7593 -3.20131 1.16936
rclavicle -7.95139e-014 3.18055e-015
rhumerus 50.1956 -14.1299 -65.9295
rradius 60.9744
rwrist 38.5687
rhand -67.273 -20.1733
rfingers 7.12502
rthumb -39.0443 -45.6806
lclavicle -7.95139e-014 3.18055e-015
lhumerus -32.1488 -0.587141 73.8205
lradius 41.122
lwrist -29.2687
lhand -33.477 17.5206
lfingers 7.12502
lthumb -6.67471 407.395
rfemur -16.8519 -11.5494 12.4535
rtibia 30.1045
rfoot -20.2763 -10.8053
rtoes 2.48988
lfemur -26.8733 1.33816 -11.7135
ltibia 35.145
lfoot -14.4688 -1.49136
ltoes -24.6341
4107
root 0.299537 17.5826 2.79678 9.34635 19.1314 -2.4779
lowerback 10.609 5.61112 1.63955
upperback 2.07688 7.61706 -0.10906
thorax -3.51016 3.759 -2.03121
lowerneck -31.6325 -7.37426 -9.80217
upperneck 21.1766 -6.20817 1.86289
head 12.5803 -3.30627 1.06093
rclavicle -1.0148e-013 0
rhumerus 50.704 -13.5569 -66.0734
rradius 60.7156
rwrist 38.7761
rhand -67.1736 -20.1957
rfingers 7.12502
rthumb -38.9505 -45.7298
lclavicle -1.0148e-013 0
lhumerus -32.0273 -0.385524 73.5258
lradius 41.0419
lwrist -29.3887
lhand -33.3204 17.2358
lfingers 7.12502
lthumb -6.52352 407.115
rfemur -16.705 -11.5781 12.5646
rtibia 29.7391
rfoot -20.306 -10.976
rtoes 2.76683
lfemur -27.0535 1.19361 -11.6263
ltibia 35.1603
lfoot -14.5052 -1.53433
ltoes -24.7297
4108
root 0.321919 17.5878 2.79553 9.45431 19.3593 -2.61667
lowerback 10.461 5.74116 1.52492
upperback 2.07462 7.76719 -0.29623
thorax -3.41391 3.83635 -2.16226
lowerneck -31.3704 -7.51339 -9.84257
upperneck 20.979 -6.44804 1.97965
head 12.4759 -3.39794 1.07097
rclavicle -8.64713e-014 1.66979e-014
rhumerus 51.1307 -13.0975 -65.9644
rradius 60.5201
rwrist 38.7251
rhand -67.1387 -20.012
rfingers 7.12502
rthumb -38.9176 -45.5556
lclavicle -8.64713e-014 1.66979e-014
lhumerus -31.8564 -0.192634 73.26
lradius 40.8576
lwrist -29.6641
lhand -33.1247 17.39
lfingers 7.12502
lthumb -6.33459 407.275
rfemur -16.6157 -11.6695 12.687
rtibia 29.3453
rfoot -20.2018 -11.179
rtoes 2.49759
lfemur -27.2637 1.02327 -11.5325
ltibia 35.1834
lfoot -14.5275 -1.55396
ltoes -24.6222
4109
root 0.34178 17.5903 2.79268 9.40222 19.6376 -2.93913
lowerback 10.5008 5.86525 1.63156
upperback 2.03724 7.93633 -0.488838
thorax -3.42528 3.91845 -2.44404
lowerneck -31.1897 -7.6436 -9.82688
upperneck 20.9891 -6.72172 2.18762
head 12.4727 -3.48905 1.0975
rclavicle -7.89175e-014 -2.127e-014
rhumerus 51.4318 -12.7069 -66.0051
rradius 60.37
rwrist 38.7507
rhand -66.9864 -19.6229
rfingers 7.12502
rthumb -38.774 -45.2073
lclavicle -7.89175e-014 -2.127e-014
lhumerus -31.7411 -0.227875 72.944
lradius 40.7468
lwrist -29.6725
lhand -33.1881 17.0064
lfingers 7.12502
lthumb -6.39576 406.89
rfemur -16.421 -11.8104 13.0096
rtibia 28.9261
rfoot -20.0406 -11.4684
rtoes 1.78007
lfemur -27.4116 0.911202 -11.2334
ltibia 35.2422
lfoot -14.5813 -1.68277
ltoes -24.6112
